<svg width="18" height="18" viewBox="0 0 18 18" fill="none" xmlns="http://www.w3.org/2000/svg">
<path d="M5.7868 12.9076H11.5736M7.96965 2.61002L3.06366 6.42579C2.73572 6.68086 2.57175 6.80839 2.45362 6.96811C2.34898 7.10959 2.27102 7.26897 2.22359 7.43843C2.17004 7.62973 2.17004 7.83746 2.17004 8.25292V13.4863C2.17004 14.2965 2.17004 14.7017 2.32773 15.0111C2.46643 15.2833 2.68774 15.5047 2.95996 15.6434C3.26942 15.801 3.67454 15.801 4.48477 15.801H12.8756C13.6859 15.801 14.091 15.801 14.4005 15.6434C14.6727 15.5047 14.894 15.2833 15.0327 15.0111C15.1904 14.7017 15.1904 14.2965 15.1904 13.4863V8.25292C15.1904 7.83746 15.1904 7.62973 15.1368 7.43843C15.0894 7.26897 15.0114 7.10959 14.9068 6.96811C14.7887 6.80839 14.6247 6.68086 14.2967 6.42579L9.39076 2.61002C9.13662 2.41236 9.00956 2.31353 8.86925 2.27555C8.74545 2.24203 8.61496 2.24203 8.49116 2.27555C8.35085 2.31353 8.22378 2.41236 7.96965 2.61002Z" stroke="#667085" stroke-width="1.4467" stroke-linecap="round" stroke-linejoin="round"/>
</svg>
